<?xml version="1.0" encoding="utf-8"?>
<!DOCTYPE svg PUBLIC "-//W3C//DTD SVG 20010904//EN" "http://www.w3.org/TR/2001/REC-SVG-20010904/DTD/svg10.dtd">
<svg version="1.0" xmlns="http://www.w3.org/2000/svg" width="600pt" height="600pt" viewBox="0 0 600 600" style="" preserveAspectRatio="xMidYMid meet">
<g fill="rgb(234, 131, 4)" stroke="rgb(234, 131, 4)">
<path d="M 292.000 75.016 C 283.616 76.159 267.894 79.751 261.500 81.985 C 258.750 82.946 254.529 84.334 252.121 85.069 C 246.035 86.926 223.691 99.248 217.230 104.310 C 209.059 110.712 194.393 124.138 191.898 127.500 C 190.673 129.150 188.005 132.300 185.969 134.500 C 182.120 138.658 168.000 158.759 168.000 160.080 C 168.000 160.495 166.065 164.134 163.700 168.167 C 161.335 172.200 158.351 177.975 157.069 181.000 C 155.787 184.025 153.518 189.200 152.026 192.500 C 146.053 205.713 138.099 231.024 134.115 249.500 C 131.358 262.281 127.201 292.054 125.876 308.500 C 124.618 324.121 125.265 366.942 126.942 379.000 C 128.974 393.606 133.291 413.610 136.189 421.849 C 139.919 432.450 148.252 449.947 151.337 453.656 C 152.638 455.220 154.856 458.300 156.266 460.500 C 159.558 465.640 172.907 479.272 180.000 484.739 C 188.426 491.232 206.964 500.876 217.255 504.119 C 252.005 515.070 266.141 516.944 314.000 516.947 C 355.188 516.949 373.630 515.043 396.500 508.420 C 401.450 506.986 407.750 505.197 410.500 504.444 C 418.843 502.160 437.927 491.930 448.144 484.264 C 478.960 461.146 496.479 424.473 502.014 371.500 C 503.385 358.377 503.368 318.690 501.985 303.500 C 500.565 287.915 497.554 268.297 494.463 254.507 C 493.109 248.460 492.000 242.763 492.000 241.845 C 492.000 236.359 478.601 197.117 472.143 183.691 C 469.448 178.086 467.075 173.050 466.871 172.500 C 466.463 171.400 460.605 161.328 455.821 153.500 C 443.068 132.636 417.258 106.661 399.500 96.822 C 379.794 85.902 368.090 81.463 346.895 76.866 C 336.237 74.554 303.490 73.451 292.000 75.016 M 421.800 167.200 C 423.539 168.939 423.539 345.061 421.800 346.800 C 420.882 347.718 395.430 348.000 313.335 348.000 C 208.309 348.000 206.049 347.960 205.035 346.066 C 203.450 343.103 203.610 168.790 205.200 167.200 C 206.941 165.459 420.059 165.459 421.800 167.200 M 326.250 424.953 C 332.665 429.670 336.000 435.273 336.000 441.335 C 336.000 448.236 333.068 453.841 327.256 458.053 C 322.901 461.209 321.903 461.500 315.427 461.500 C 309.382 461.500 307.749 461.100 304.191 458.745 C 296.040 453.351 292.839 442.095 297.009 433.482 C 302.773 421.574 316.294 417.630 326.250 424.953 M 236.000 399.985 C 247.512 403.188 254.690 417.963 249.557 427.890 C 242.314 441.896 224.881 444.171 215.160 432.378 C 206.761 422.189 210.143 407.596 222.309 401.533 C 227.812 398.791 230.582 398.478 236.000 399.985 M 405.065 400.002 C 409.303 401.179 416.459 407.052 418.526 411.051 C 420.310 414.501 420.429 425.620 418.715 428.638 C 417.443 430.875 410.069 437.357 406.812 439.101 C 403.103 441.086 395.294 440.362 390.575 437.597 C 382.670 432.964 379.446 426.695 380.213 417.448 C 380.817 410.157 384.387 404.983 391.129 401.623 C 396.824 398.785 399.546 398.468 405.065 400.002 "/></g>
</svg>
